<svg width="2048" height="1236" viewBox="0 0 2048 1236" fill="none" xmlns="http://www.w3.org/2000/svg">
<g style="mix-blend-mode:exclusion">
<mask id="mask0_81_10" style="mask-type:alpha" maskUnits="userSpaceOnUse" x="162" y="0" width="1706" height="1153">
<rect x="162.094" width="1705.16" height="1152.33" fill="#D9D9D9"/>
</mask>
<g mask="url(#mask0_81_10)">
<path d="M180.744 49.963C180.744 22.3692 203.113 0 230.707 0H1817.29C1844.89 0 1867.26 22.3692 1867.26 49.963V1140.38C1867.26 1160.78 1850.72 1177.31 1830.33 1177.31H217.673C197.277 1177.31 180.744 1160.78 180.744 1140.38V49.963Z" fill="#EFEFEF"/>
<g filter="url(#filter0_i_81_10)">
<path d="M184.476 49.6639C184.476 24.0696 205.224 3.32129 230.818 3.32129H1817.18C1842.78 3.32129 1863.53 24.0695 1863.53 49.6638V1144C1863.53 1162.4 1848.61 1177.31 1830.22 1177.31H217.784C199.388 1177.31 184.476 1162.4 184.476 1144V49.6639Z" fill="#EFEFEF"/>
</g>
<path d="M184.476 49.6638C184.476 24.0695 205.224 3.32129 230.818 3.32129H1817.18C1842.78 3.32129 1863.53 24.0695 1863.53 49.6638V1135.2C1863.53 1151.2 1850.56 1164.17 1834.56 1164.17H213.44C197.443 1164.17 184.476 1151.2 184.476 1135.2V49.6638Z" fill="#DFDFDF"/>
</g>
<g clip-path="url(#clip0_81_10)">
<rect x="209.749" y="30.5132" width="1628.51" height="1056.23" rx="18.1025" fill="white"/>
<g clip-path="url(#clip1_81_10)">
<rect width="1632" height="1056.72" transform="translate(208.002 30.2661)" fill="white"/>
<rect x="207.703" y="30.0894" width="1632" height="1056.72" fill="#D9D9D9"/>
</g>
</g>
<mask id="mask1_81_10" style="mask-type:alpha" maskUnits="userSpaceOnUse" x="188" y="8" width="1672" height="1145">
<rect x="188.783" y="8.23193" width="1670.62" height="1144.09" fill="#D9D9D9"/>
</mask>
<g mask="url(#mask1_81_10)">
<path fill-rule="evenodd" clip-rule="evenodd" d="M189.967 48.8837C189.967 26.8886 207.797 9.05811 229.792 9.05811H1818.21C1840.2 9.05811 1858.03 26.8886 1858.03 48.8837V1134.35C1858.03 1147.55 1847.34 1158.25 1834.14 1158.25H213.862C200.665 1158.25 189.967 1147.55 189.967 1134.35V48.8837ZM209.748 48.6157C209.748 38.6179 217.853 30.5131 227.851 30.5131H924.551V51.8338C924.551 57.8325 929.414 62.6954 935.412 62.6954H1112.59C1118.59 62.6954 1123.45 57.8325 1123.45 51.8338V30.5131H1820.15C1830.15 30.5131 1838.25 38.6179 1838.25 48.6157V1068.71C1838.25 1078.71 1830.15 1086.81 1820.15 1086.81H227.851C217.853 1086.81 209.748 1078.71 209.748 1068.71V48.6157Z" fill="#EFEFEF"/>
</g>
<path d="M191.686 1107.94C191.686 1107.54 192.01 1107.21 192.41 1107.21H1856.06C1856.46 1107.21 1856.79 1107.54 1856.79 1107.94V1134.95C1856.79 1144.55 1849.01 1152.33 1839.41 1152.33H209.064C199.467 1152.33 191.686 1144.55 191.686 1134.95V1107.94Z" fill="#ECEBEB"/>
<circle cx="1024" cy="38.0604" r="8.2606" fill="#D9D9D9"/>
<path d="M0 1153.05C0 1152.65 0.324191 1152.33 0.724101 1152.33H2047.28C2047.68 1152.33 2048 1152.65 2048 1153.05V1188.43C2048 1208.55 2031.69 1224.86 2011.58 1224.86H36.2638C16.2359 1224.86 0 1208.62 0 1188.59V1153.05Z" fill="#DFDFDF"/>
<path d="M844.65 1152.33C845.616 1160.86 852.859 1177.92 874.104 1177.92H1173.9C1195.14 1177.92 1202.39 1160.86 1203.35 1152.33L1024 1152.48L844.65 1152.33Z" fill="#FCFCFF"/>
<path d="M1805.6 1230.2C1805.41 1230.2 1805.31 1230.42 1805.44 1230.56C1807.31 1232.6 1810.43 1235.97 1810.8 1235.97H1925.25C1925.75 1235.97 1928.12 1233.38 1930.62 1230.56C1930.75 1230.42 1930.65 1230.2 1930.46 1230.2H1805.6Z" fill="#656565"/>
<path d="M1804.99 1229.46L1930.96 1229.69L1930.53 1230.45L1805.44 1230.32L1804.99 1229.46Z" fill="#ECEBEB"/>
<path d="M1799.7 1224.86C1801.03 1226.52 1804.03 1229.86 1805.39 1229.86H1930.59C1931.95 1229.86 1934.95 1226.52 1936.28 1224.86H1799.7Z" fill="#C7C7C7"/>
<path d="M117.617 1230.2C117.428 1230.2 117.328 1230.42 117.456 1230.56C119.325 1232.59 122.451 1235.97 122.817 1235.97H237.269C237.771 1235.97 240.134 1233.38 242.643 1230.56C242.767 1230.42 242.668 1230.2 242.481 1230.2H117.617Z" fill="#656565"/>
<path d="M117.006 1229.46L242.974 1229.69L242.544 1230.45L117.459 1230.32L117.006 1229.46Z" fill="#ECEBEB"/>
<path d="M111.717 1224.86C113.048 1226.52 116.05 1229.86 117.411 1229.86H242.609C243.97 1229.86 246.972 1226.52 248.303 1224.86H111.717Z" fill="#C7C7C7"/>
</g>
<defs>
<filter id="filter0_i_81_10" x="184.476" y="3.32129" width="1679.05" height="1175.44" filterUnits="userSpaceOnUse" color-interpolation-filters="sRGB">
<feFlood flood-opacity="0" result="BackgroundImageFix"/>
<feBlend mode="normal" in="SourceGraphic" in2="BackgroundImageFix" result="shape"/>
<feColorMatrix in="SourceAlpha" type="matrix" values="0 0 0 0 0 0 0 0 0 0 0 0 0 0 0 0 0 0 127 0" result="hardAlpha"/>
<feOffset dy="2.1723"/>
<feGaussianBlur stdDeviation="0.724101"/>
<feComposite in2="hardAlpha" operator="arithmetic" k2="-1" k3="1"/>
<feColorMatrix type="matrix" values="0 0 0 0 0 0 0 0 0 0 0 0 0 0 0 0 0 0 0.19 0"/>
<feBlend mode="normal" in2="shape" result="effect1_innerShadow_81_10"/>
</filter>
<clipPath id="clip0_81_10">
<rect x="209.749" y="30.5132" width="1628.51" height="1056.23" rx="18.1025" fill="white"/>
</clipPath>
<clipPath id="clip1_81_10">
<rect width="1632" height="1056.72" fill="white" transform="translate(208.002 30.2661)"/>
</clipPath>
</defs>
</svg>
