<svg width="20" height="12" viewBox="0 0 20 12" fill="none" xmlns="http://www.w3.org/2000/svg">
<path d="M16.4211 4.47169V2.42248C16.4211 1.59457 15.9927 1.1665 15.182 1.1665H4.64309C3.86925 1.1665 3.40403 1.59457 3.40403 2.42248V9.59143H2.10048C1.76423 9.59143 1.49707 9.86898 1.49707 10.2171C1.49707 10.5652 1.76423 10.8427 2.10048 10.8427H13.961V9.59143H4.21932V2.64357C4.21932 2.2108 4.4312 1.99912 4.85036 1.99912H14.9747C15.3939 1.99912 15.6058 2.2108 15.6058 2.64357V4.47213C16.0167 4.47169 15.8776 4.47169 16.0167 4.47169H16.4211Z" fill="#67E8F9"/>
<path d="M14.8577 10.6558C14.8577 11.1153 15.1517 11.4065 15.6172 11.4065H17.6688C18.1343 11.4065 18.4283 11.1153 18.4283 10.6558V6.04927C18.4283 5.58976 18.1343 5.29858 17.6688 5.29858H15.6172C15.1517 5.29858 14.8577 5.58976 14.8577 6.04927V10.6558Z" fill="white" fill-opacity="0.9"/>
</svg>
