<svg width="30" height="33" viewBox="0 0 30 33" fill="none" xmlns="http://www.w3.org/2000/svg">
<g clip-path="url(#clip0_30661_7891)">
<path d="M7 26.2382C7 28.2109 8.28906 29.4609 10.3301 29.4609H19.3242C21.3652 29.4609 22.6641 28.2109 22.6641 26.2382V6.46289C22.6641 4.49023 21.3652 3.24023 19.3242 3.24023H10.3301C8.28906 3.24023 7 4.49023 7 6.46289V26.2382ZM8.72852 25.9843V6.71679C8.72852 5.57421 9.35352 4.96875 10.5449 4.96875H19.1191C20.3008 4.96875 20.9258 5.57421 20.9258 6.71679V25.9843C20.9258 27.1269 20.3008 27.7324 19.1191 27.7324H10.5449C9.35352 27.7324 8.72852 27.1269 8.72852 25.9843Z" fill="white" fill-opacity="0.85"/>
<path d="M11.043 25.9355H12.2051C12.4883 25.9355 12.6934 25.75 12.6934 25.4765V24.2754C12.6934 24.0117 12.4883 23.8261 12.2051 23.8261H11.043C10.7695 23.8261 10.584 24.0117 10.584 24.2754V25.4765C10.584 25.75 10.7695 25.9355 11.043 25.9355ZM14.2266 25.9355H15.3984C15.6816 25.9355 15.877 25.75 15.877 25.4765V24.2754C15.877 24.0117 15.6816 23.8261 15.3984 23.8261H14.2266C13.9531 23.8261 13.7676 24.0117 13.7676 24.2754V25.4765C13.7676 25.75 13.9531 25.9355 14.2266 25.9355ZM17.4102 25.9355H18.582C18.8652 25.9355 19.0703 25.75 19.0703 25.4765V24.2754C19.0703 24.0117 18.8652 23.8261 18.582 23.8261H17.4102C17.1465 23.8261 16.9609 24.0117 16.9609 24.2754V25.4765C16.9609 25.75 17.1465 25.9355 17.4102 25.9355ZM11.043 15.789H12.2051C12.4883 15.789 12.6934 15.6035 12.6934 15.3203V14.1289C12.6934 13.8554 12.4883 13.6699 12.2051 13.6699H11.043C10.7695 13.6699 10.584 13.8554 10.584 14.1289V15.3203C10.584 15.6035 10.7695 15.789 11.043 15.789ZM14.2266 15.789H15.3984C15.6816 15.789 15.877 15.6035 15.877 15.3203V14.1289C15.877 13.8554 15.6816 13.6699 15.3984 13.6699H14.2266C13.9531 13.6699 13.7676 13.8554 13.7676 14.1289V15.3203C13.7676 15.6035 13.9531 15.789 14.2266 15.789ZM11.043 12.4004H12.2051C12.4883 12.4004 12.6934 12.2148 12.6934 11.9512V10.75C12.6934 10.4766 12.4883 10.291 12.2051 10.291H11.043C10.7695 10.291 10.584 10.4766 10.584 10.75V11.9512C10.584 12.2148 10.7695 12.4004 11.043 12.4004ZM14.2266 12.4004H15.3984C15.6816 12.4004 15.877 12.2148 15.877 11.9512V10.75C15.877 10.4766 15.6816 10.291 15.3984 10.291H14.2266C13.9531 10.291 13.7676 10.4766 13.7676 10.75V11.9512C13.7676 12.2148 13.9531 12.4004 14.2266 12.4004ZM17.4102 12.4004H18.582C18.8652 12.4004 19.0703 12.2148 19.0703 11.9512V10.75C19.0703 10.4766 18.8652 10.291 18.582 10.291H17.4102C17.1465 10.291 16.9609 10.4766 16.9609 10.75V11.9512C16.9609 12.2148 17.1465 12.4004 17.4102 12.4004ZM11.043 9.02148H12.2051C12.4883 9.02148 12.6934 8.83593 12.6934 8.57226V7.37109C12.6934 7.10742 12.4883 6.91211 12.2051 6.91211H11.043C10.7695 6.91211 10.584 7.10742 10.584 7.37109V8.57226C10.584 8.83593 10.7695 9.02148 11.043 9.02148ZM14.2266 9.02148H15.3984C15.6816 9.02148 15.877 8.83593 15.877 8.57226V7.37109C15.877 7.10742 15.6816 6.91211 15.3984 6.91211H14.2266C13.9531 6.91211 13.7676 7.10742 13.7676 7.37109V8.57226C13.7676 8.83593 13.9531 9.02148 14.2266 9.02148ZM17.4102 9.02148H18.582C18.8652 9.02148 19.0703 8.83593 19.0703 8.57226V7.37109C19.0703 7.10742 18.8652 6.91211 18.582 6.91211H17.4102C17.1465 6.91211 16.9609 7.10742 16.9609 7.37109V8.57226C16.9609 8.83593 17.1465 9.02148 17.4102 9.02148Z" fill="white" fill-opacity="0.85"/>
</g>
<defs>
<clipPath id="clip0_30661_7891">
<rect width="29.3457" height="32.7246" fill="white"/>
</clipPath>
</defs>
</svg>
