<svg xmlns="http://www.w3.org/2000/svg" width="29" height="31" viewBox="0 0 29 31" fill="none">
  <g clip-path="url(#clip0_574_757)">
    <path d="M12.5684 6.01563L6.98242 6.01562C4.73633 6.01562 2.90039 7.85156 2.90039 10.0879C2.90039 12.3535 4.72656 14.1797 6.98242 14.1797H21.3867C24.5898 14.1797 27.1973 16.7871 27.1973 20C27.1973 23.2031 24.5898 25.8008 21.3867 25.8008H15.7422V24.0723H21.3867C23.6328 24.0723 25.4688 22.2461 25.4688 20C25.4688 17.7344 23.6426 15.9082 21.3867 15.9082H6.98242C3.7793 15.9082 1.16211 13.3008 1.16211 10.0879C1.16211 6.89453 3.7793 4.28711 6.98242 4.28711H12.5684V6.01563Z" fill="white" fill-opacity="0.85"/>
    <path d="M14.5801 23.4277V26.4355C14.5801 27.3438 14.1797 27.7441 13.2715 27.7441H6.5918C5.69336 27.7441 5.29297 27.3438 5.29297 26.4355V23.4277C5.29297 22.5195 5.69336 22.1289 6.5918 22.1289H13.2715C14.1797 22.1289 14.5801 22.5195 14.5801 23.4277ZM4.13086 26.6016H2.09961C1.44531 26.6016 1.16211 26.3086 1.16211 25.6543V24.2285C1.16211 23.5645 1.44531 23.2812 2.09961 23.2812H4.13086V26.6016Z" fill="white" fill-opacity="0.85"/>
    <path d="M13.3203 3.63767V6.64547C13.3203 7.55377 13.7207 7.95407 14.6289 7.95407H21.3086C22.207 7.95407 22.6074 7.55377 22.6074 6.64547V3.63767C22.6074 2.72947 22.207 2.33887 21.3086 2.33887H14.6289C13.7207 2.33887 13.3203 2.72947 13.3203 3.63767ZM23.7695 6.81157H25.8008C26.4551 6.81157 26.7383 6.51857 26.7383 5.86427V4.43847C26.7383 3.77447 26.4551 3.49117 25.8008 3.49117H23.7695V6.81157Z" fill="white" fill-opacity="0.85"/>
  </g>
  <defs>
    <clipPath id="clip0_574_757">
      <rect width="28.7305" height="30.1074" fill="white"/>
    </clipPath>
  </defs>
</svg>
